<svg width="40" height="40" xmlns="http://www.w3.org/2000/svg" class=" leading-10 inline-block" fill="none">
 <!-- 添加上半圆箭头 -->
 <!-- 添加下半圆箭头 -->
 <defs>
  <linearGradient y2="1.06893" y1="-0.0005" x2="0.97392" x1="0" id="logo-text_svg__a">
   <stop stop-color="#FF4385" offset="0.01"/>
   <stop stop-color="#FF4274" offset="0.276"/>
   <stop stop-color="#FF5C65" offset="0.724"/>
   <stop stop-color="#FF5C35" offset="1"/>
  </linearGradient>
 </defs>
 <g>
  <title>Layer 1</title>
  <path stroke="null" transform="rotate(137.335 18.499 12.9677)" id="svg_1" d="m28.80448,17.00941a5.95226,5.83937 0 0 1 -0.41496,0.01335l-0.13776,0a6.71755,6.59015 0 0 0 0.16837,-2.38413a6.59,6.46502 0 0 1 -2.67512,0.6757a6.80258,6.67356 0 0 0 0.1301,-1.30051c0,-0.46965 -0.05017,-0.93847 -0.15051,-1.39728a6.63252,6.50673 0 0 1 -2.25335,0.81417l-0.0051,-0.00751a6.80258,6.67356 0 0 0 0.12755,-1.28466a6.80258,6.67356 0 0 0 -0.10799,-1.18456a7.48284,7.34092 0 0 1 -2.48039,1.69925a7.48284,7.34092 0 0 1 -2.95912,0.59562a7.44883,7.30755 0 0 1 -3.45061,-0.82585a6.63252,6.50673 0 0 0 1.37497,-0.71908a6.71755,6.59015 0 0 1 -2.7695,-2.43919a6.76857,6.6402 0 0 1 -0.91835,-4.7107a6.63252,6.50673 0 0 1 0.83502,-2.19227q0.34608,-0.57309 0.80271,-1.06694a13.06436,12.81658 0 0 0 -7.61549,11.66789a13.06096,12.81324 0 0 0 1.5833,6.13802c0.07058,-0.61731 0.22959,-1.22293 0.47278,-1.79686a12.46573,12.22931 0 0 0 3.62407,4.80497a12.36369,12.1292 0 0 0 5.50159,2.53178a6.71755,6.59015 0 0 1 -0.85457,-1.4515c1.07481,0.34452 2.19383,0.53305 3.32221,0.56058c0.10034,0 0.20068,0.00334 0.30186,0.00334a11.61541,11.39511 0 0 0 5.17251,-1.18456a6.80258,6.67356 0 0 1 -0.76869,-0.50135a11.20215,10.98969 0 0 0 6.03304,-5.44146a6.63252,6.50673 0 0 1 -1.88942,0.38373" fill="url(#logo-text_svg__a)"/>
  <path id="svg_9" d="m53.10301,19.52934c0.09249,0.17734 0.11055,0.23119 0.07996,0.2385c-0.05974,0.01429 -0.04773,0.096 0.03588,0.24422c0.10486,0.18589 0.31025,0.30004 0.50317,0.27966c0.07488,-0.00791 0.15954,-0.02424 0.18813,-0.03629c0.02859,-0.01204 0.01105,0.0104 -0.03898,0.04987c-0.25027,0.19746 -0.55937,0.1837 -0.80596,-0.03586c-0.09832,-0.08755 -0.23359,-0.34333 -0.23359,-0.4417c0,-0.02787 -0.0223,-0.05487 -0.04956,-0.06c-0.04458,-0.0084 -0.03859,-0.03051 0.05954,-0.21993c0.06001,-0.11583 0.11649,-0.2189 0.12553,-0.22906c0.00903,-0.01015 0.07018,0.08461 0.13589,0.21059l0,0zm0.79504,0.34188c-0.09249,-0.17734 -0.11055,-0.23119 -0.07997,-0.23851c0.05974,-0.01429 0.04773,-0.09599 -0.03588,-0.24422c-0.10486,-0.18589 -0.31025,-0.30004 -0.50317,-0.27966c-0.07488,0.00791 -0.15954,0.02424 -0.18813,0.03629c-0.02859,0.01204 -0.01104,-0.01039 0.03899,-0.04987c0.25027,-0.19746 0.55937,-0.1837 0.80596,0.03586c0.09832,0.08755 0.2336,0.34333 0.2336,0.4417c0,0.02787 0.0223,0.05487 0.04956,0.06c0.04458,0.0084 0.03859,0.03051 -0.05954,0.21993c-0.06001,0.11583 -0.11649,0.2189 -0.12553,0.22906c-0.00903,0.01015 -0.07018,-0.08461 -0.13589,-0.21059l0,0z" fill="url(#logo-text_svg__a)"/>
  <path stroke="null" transform="rotate(-42.5338 19.8101 26.4361)" id="svg_22" d="m30.92828,30.733a6.42166,6.20813 0 0 1 -0.44768,0.01418l-0.14862,0a7.2473,7.00632 0 0 0 0.18164,-2.53469a7.10969,6.87328 0 0 1 -2.88607,0.71836a7.33904,7.095 0 0 0 0.14036,-1.38263c0,-0.49931 -0.05413,-0.99773 -0.16238,-1.48551a7.15556,6.91763 0 0 1 -2.43105,0.86558l-0.00551,-0.00797a7.33904,7.095 0 0 0 0.13761,-1.3658a7.33904,7.095 0 0 0 -0.11651,-1.25935a8.07294,7.8045 0 0 1 -2.676,1.80656a8.07294,7.8045 0 0 1 -3.19248,0.63324a8.03625,7.76903 0 0 1 -3.72273,-0.87802a7.15556,6.91763 0 0 0 1.4834,-0.76448a7.2473,7.00632 0 0 1 -2.9879,-2.59322a7.30234,7.05953 0 0 1 -0.99077,-5.00818a7.15556,6.91763 0 0 1 0.90087,-2.33071q0.37337,-0.60928 0.86601,-1.13432a14.09462,13.62595 0 0 0 -8.21605,12.40473a14.09095,13.62241 0 0 0 1.70816,6.52563c0.07614,-0.65629 0.24769,-1.30015 0.51006,-1.91032a13.44878,13.00159 0 0 0 3.90987,5.10839a13.3387,12.89517 0 0 0 5.93544,2.69167a7.2473,7.00632 0 0 1 -0.92196,-1.54316c1.15956,0.36627 2.36684,0.56671 3.5842,0.59597c0.10826,0 0.21651,0.00356 0.32567,0.00356a12.5314,12.11472 0 0 0 5.58042,-1.25935a7.33904,7.095 0 0 1 -0.82931,-0.53302a12.08556,11.68369 0 0 0 6.50881,-5.78507a7.15556,6.91763 0 0 1 -2.03842,0.40796" fill="url(#logo-text_svg__a)"/>
 </g>
</svg>