<?xml version="1.0" standalone="no"?><!DOCTYPE svg PUBLIC "-//W3C//DTD SVG 1.1//EN" "http://www.w3.org/Graphics/SVG/1.1/DTD/svg11.dtd"><svg t="1728984682765" class="icon" viewBox="0 0 1024 1024" version="1.1" xmlns="http://www.w3.org/2000/svg" p-id="1287" xmlns:xlink="http://www.w3.org/1999/xlink" width="200" height="200"><path d="M822.784 294.4v554.496c0 18.432-15.36 32.256-34.304 32.256h-553.472c-18.944 0-34.304-14.848-34.304-32.256V294.4h622.08m69.12-65.536h-761.344v652.288c0 35.84 31.232 65.536 69.12 65.536h622.592c38.4 0 69.12-29.696 69.12-65.536l0.512-652.288z" fill="#d81e06" p-id="1288"></path><path d="M304.128 227.328v-84.992h415.232v84.992h-415.232m-69.632 65.536h484.352c38.4 0 69.12-29.696 69.12-65.536v-84.992c0-35.84-31.232-65.536-69.12-65.536h-415.232c-38.4 0-69.12 29.696-69.12 65.536v150.528z" fill="#d81e06" p-id="1289"></path><path d="M936.96 228.352h-849.92c-18.944 0-34.304 14.848-34.304 32.256 0 18.432 15.36 32.256 34.304 32.256h849.92c18.944 0 34.304-14.848 34.304-32.256 0.512-17.408-15.36-32.256-34.304-32.256zM372.736 424.96h69.12v326.656h-69.12V424.96z m207.36 0h69.12v326.656h-69.12V424.96z" fill="#d81e06" p-id="1290"></path></svg>