<?xml version="1.0" standalone="no"?><!DOCTYPE svg PUBLIC "-//W3C//DTD SVG 1.1//EN" "http://www.w3.org/Graphics/SVG/1.1/DTD/svg11.dtd"><svg t="1728982940091" class="icon" viewBox="0 0 1024 1024" version="1.1" xmlns="http://www.w3.org/2000/svg" p-id="6253" xmlns:xlink="http://www.w3.org/1999/xlink" width="200" height="200"><path d="M829.952 445.44c-16.896-1.024-30.72 12.8-30.72 29.184v366.592c0 39.936-32.768 72.704-72.704 72.704H194.56c-39.424 0-84.992-33.28-84.992-72.704V305.664c0-39.424 45.568-81.408 84.992-81.408h306.176c16.896 0 30.72-14.336 29.184-30.72-1.024-15.36-13.824-26.624-29.696-26.624H194.56c-78.336 0-142.336 59.904-142.336 138.752v535.552c0 78.848 64 130.56 142.336 130.56h534.528c78.848 0 127.488-51.712 127.488-130.56v-366.08c0-15.872-11.264-28.672-26.624-29.696z m0 0" fill="#1677ff" p-id="6254"></path><path d="M945.664 120.832l-43.52-44.032c-33.28-33.28-91.648-33.28-125.44 0l-82.432 97.28-440.832 422.4v10.24l-0.512 2.048-55.296 187.904 40.96 36.352 177.664-62.976 2.048 0.512h8.704l421.376-441.344 97.28-79.36c34.304-34.816 34.304-94.72 0-129.024z m-670.208 634.368l26.112-82.432 51.712 51.712-77.824 30.72z m130.56-61.952l-76.288-76.288 394.24-392.192 73.728 73.728-391.68 394.752z m497.664-488.96l-58.88 58.88-85.504-85.504 58.88-58.88c5.632-5.632 12.8-8.704 20.992-8.704 7.68 0 15.36 3.072 20.992 8.704l43.52 44.032c11.776 11.264 11.776 29.696 0 41.472z m0 0" fill="#1677ff" p-id="6255"></path></svg>